<mxfile host="app.diagrams.net" agent="Mozilla/5.0 (X11; Linux x86_64) AppleWebKit/537.36 (KHTML, like Gecko) Chrome/131.0.0.0 Safari/537.36" version="25.0.3">
  <diagram name="Page-1" id="3BOUyJoMABqQ_jSt6TPa">
    <mxGraphModel dx="1094" dy="671" grid="1" gridSize="10" guides="1" tooltips="1" connect="1" arrows="1" fold="1" page="1" pageScale="1" pageWidth="850" pageHeight="1100" math="0" shadow="0">
      <root>
        <mxCell id="0" />
        <mxCell id="1" parent="0" />
        <mxCell id="WMo00jjhUolIUe1Bqgja-9" value="" style="edgeStyle=orthogonalEdgeStyle;rounded=0;orthogonalLoop=1;jettySize=auto;html=1;" edge="1" parent="1" source="WMo00jjhUolIUe1Bqgja-1" target="WMo00jjhUolIUe1Bqgja-8">
          <mxGeometry relative="1" as="geometry" />
        </mxCell>
        <mxCell id="WMo00jjhUolIUe1Bqgja-1" value="JWT" style="rounded=0;whiteSpace=wrap;html=1;" vertex="1" parent="1">
          <mxGeometry x="450" y="90" width="120" height="30" as="geometry" />
        </mxCell>
        <mxCell id="WMo00jjhUolIUe1Bqgja-2" value="Tokens" style="rounded=0;whiteSpace=wrap;html=1;" vertex="1" parent="1">
          <mxGeometry x="320" y="90" width="120" height="60" as="geometry" />
        </mxCell>
        <mxCell id="WMo00jjhUolIUe1Bqgja-4" value="" style="edgeStyle=orthogonalEdgeStyle;rounded=0;orthogonalLoop=1;jettySize=auto;html=1;" edge="1" parent="1" source="WMo00jjhUolIUe1Bqgja-3" target="WMo00jjhUolIUe1Bqgja-2">
          <mxGeometry relative="1" as="geometry" />
        </mxCell>
        <mxCell id="WMo00jjhUolIUe1Bqgja-20" value="Public key" style="edgeLabel;html=1;align=center;verticalAlign=middle;resizable=0;points=[];" vertex="1" connectable="0" parent="WMo00jjhUolIUe1Bqgja-4">
          <mxGeometry x="-0.1464" y="-1" relative="1" as="geometry">
            <mxPoint as="offset" />
          </mxGeometry>
        </mxCell>
        <mxCell id="WMo00jjhUolIUe1Bqgja-3" value="QR коды" style="rounded=0;whiteSpace=wrap;html=1;" vertex="1" parent="1">
          <mxGeometry x="40" y="90" width="120" height="60" as="geometry" />
        </mxCell>
        <mxCell id="WMo00jjhUolIUe1Bqgja-7" value="" style="edgeStyle=orthogonalEdgeStyle;rounded=0;orthogonalLoop=1;jettySize=auto;html=1;entryX=0.5;entryY=1;entryDx=0;entryDy=0;" edge="1" parent="1" source="WMo00jjhUolIUe1Bqgja-5" target="WMo00jjhUolIUe1Bqgja-2">
          <mxGeometry relative="1" as="geometry">
            <mxPoint x="360" y="200" as="targetPoint" />
          </mxGeometry>
        </mxCell>
        <mxCell id="WMo00jjhUolIUe1Bqgja-13" value="Sevice Key" style="edgeLabel;html=1;align=center;verticalAlign=middle;resizable=0;points=[];" vertex="1" connectable="0" parent="WMo00jjhUolIUe1Bqgja-7">
          <mxGeometry x="-0.0516" y="-1" relative="1" as="geometry">
            <mxPoint as="offset" />
          </mxGeometry>
        </mxCell>
        <mxCell id="WMo00jjhUolIUe1Bqgja-5" value="Core" style="rounded=0;whiteSpace=wrap;html=1;" vertex="1" parent="1">
          <mxGeometry x="40" y="170" width="120" height="60" as="geometry" />
        </mxCell>
        <mxCell id="WMo00jjhUolIUe1Bqgja-8" value="Кошелек" style="rounded=0;whiteSpace=wrap;html=1;" vertex="1" parent="1">
          <mxGeometry x="610" y="140" width="120" height="30" as="geometry" />
        </mxCell>
        <mxCell id="WMo00jjhUolIUe1Bqgja-10" value="Reports" style="rounded=0;whiteSpace=wrap;html=1;" vertex="1" parent="1">
          <mxGeometry x="610" y="175" width="120" height="30" as="geometry" />
        </mxCell>
        <mxCell id="WMo00jjhUolIUe1Bqgja-11" value="KeyCloack" style="rounded=0;whiteSpace=wrap;html=1;" vertex="1" parent="1">
          <mxGeometry x="600" y="250" width="120" height="60" as="geometry" />
        </mxCell>
        <mxCell id="WMo00jjhUolIUe1Bqgja-16" value="" style="edgeStyle=orthogonalEdgeStyle;rounded=0;orthogonalLoop=1;jettySize=auto;html=1;" edge="1" parent="1" source="WMo00jjhUolIUe1Bqgja-12" target="WMo00jjhUolIUe1Bqgja-15">
          <mxGeometry relative="1" as="geometry" />
        </mxCell>
        <mxCell id="WMo00jjhUolIUe1Bqgja-12" value="COBRA" style="rounded=0;whiteSpace=wrap;html=1;" vertex="1" parent="1">
          <mxGeometry x="40" y="250" width="120" height="60" as="geometry" />
        </mxCell>
        <mxCell id="WMo00jjhUolIUe1Bqgja-14" value="Transition&lt;br&gt;Expairation" style="text;html=1;align=left;verticalAlign=middle;whiteSpace=wrap;rounded=0;" vertex="1" parent="1">
          <mxGeometry x="410" y="190" width="120" height="30" as="geometry" />
        </mxCell>
        <mxCell id="WMo00jjhUolIUe1Bqgja-15" value="PIN Auth" style="whiteSpace=wrap;html=1;rounded=0;" vertex="1" parent="1">
          <mxGeometry x="320" y="250" width="120" height="60" as="geometry" />
        </mxCell>
        <mxCell id="WMo00jjhUolIUe1Bqgja-19" value="" style="edgeStyle=orthogonalEdgeStyle;rounded=0;orthogonalLoop=1;jettySize=auto;html=1;entryX=0.5;entryY=0;entryDx=0;entryDy=0;" edge="1" parent="1" source="WMo00jjhUolIUe1Bqgja-17" target="WMo00jjhUolIUe1Bqgja-2">
          <mxGeometry relative="1" as="geometry">
            <mxPoint x="570" y="150" as="targetPoint" />
          </mxGeometry>
        </mxCell>
        <mxCell id="WMo00jjhUolIUe1Bqgja-17" value="Keeper" style="rounded=0;whiteSpace=wrap;html=1;" vertex="1" parent="1">
          <mxGeometry x="320" y="10" width="120" height="60" as="geometry" />
        </mxCell>
        <mxCell id="WMo00jjhUolIUe1Bqgja-21" value="Redis&lt;br&gt;Cache" style="rounded=0;whiteSpace=wrap;html=1;fillColor=#ffe6cc;strokeColor=#d79b00;" vertex="1" parent="1">
          <mxGeometry x="130" y="205" width="50" height="30" as="geometry" />
        </mxCell>
        <mxCell id="WMo00jjhUolIUe1Bqgja-22" value="???" style="text;html=1;align=center;verticalAlign=middle;whiteSpace=wrap;rounded=0;" vertex="1" parent="1">
          <mxGeometry x="490" y="265" width="60" height="30" as="geometry" />
        </mxCell>
        <mxCell id="WMo00jjhUolIUe1Bqgja-23" value="" style="rounded=0;whiteSpace=wrap;html=1;" vertex="1" parent="1">
          <mxGeometry x="305" y="80" width="120" height="60" as="geometry" />
        </mxCell>
      </root>
    </mxGraphModel>
  </diagram>
</mxfile>
